            <svg xmlns="http://www.w3.org/2000/svg" width="172" height="18" viewBox="0 0 172 18" fill="none">
                <path fill-rule="evenodd" clip-rule="evenodd" d="M168.416 0.0817642C167.819 0.182476 167.218 0.544408 166.739 1.09032C165.964 1.97479 165.804 3.25645 166.333 4.3364C167.066 5.8306 168.746 6.45221 170.236 5.78029C172.884 4.58708 172.451 0.680287 169.606 0.0875134C169.051 -0.0282433 169.066 -0.0281472 168.416 0.0817642ZM170.001 0.925695C170.828 1.29721 171.326 2.07138 171.333 2.99686C171.343 4.36313 170.346 5.38012 169.004 5.37198C166.995 5.35981 165.938 2.98622 167.278 1.49672C168.013 0.678946 168.994 0.473401 170.001 0.925695ZM167.911 1.83268C167.885 1.90177 167.875 2.45161 167.89 3.05445L167.917 4.15059L168.275 4.1803L168.633 4.2101V3.77304C168.633 3.40699 168.663 3.33608 168.815 3.33608C168.927 3.33608 169.101 3.50205 169.268 3.7671C169.521 4.16909 169.567 4.19822 169.95 4.19831C170.397 4.1985 170.398 4.19161 170.002 3.65393C169.745 3.30388 169.724 3.18563 169.909 3.11444C170.141 3.02493 170.247 2.54246 170.108 2.20994C170.015 1.9883 169.89 1.88567 169.618 1.80997C169.086 1.66163 167.971 1.67648 167.911 1.83268ZM169.444 2.56948C169.444 2.67009 169.322 2.72203 169.038 2.74263C168.68 2.7687 168.633 2.74867 168.633 2.56948C168.633 2.39029 168.68 2.37026 169.038 2.39632C169.322 2.41693 169.444 2.46886 169.444 2.56948ZM3.69714 3.19665C2.12072 3.62298 0.833672 4.83076 0.251685 6.4297L0 7.12117V10.523C0 13.8453 0.00515207 13.9392 0.222491 14.544C0.771466 16.0718 1.68051 17.0415 3.19615 17.7159L3.7209 17.9494L16.7679 17.9747L29.8149 18V17.1362V16.2725H17.4119H5.0089V13.8289V11.3854H17.4119H29.8149V10.523V9.66053H17.4119H5.0089V7.21699V4.77346H17.4119H29.8149V3.91103V3.0486L17.0064 3.05493C6.28374 3.0602 4.11636 3.08329 3.69714 3.19665ZM49.6597 10.523V17.9973H62.5223C74.0175 17.9973 75.4401 17.981 75.9032 17.8445C77.5971 17.3447 78.8725 16.0638 79.3701 14.3625C79.4965 13.9302 79.5222 13.28 79.5222 10.523C79.5222 7.76588 79.4965 7.11571 79.3701 6.68344C78.8823 5.0158 77.5636 3.6913 75.9032 3.20144C75.4401 3.06489 74.0175 3.0486 62.5223 3.0486H49.6597V10.523ZM99.367 10.523V17.9973H101.895H104.424V11.3854V4.77346H114.346H124.268V11.3854V17.9973H126.749H129.23V12.6006C129.23 6.67645 129.236 6.75282 128.639 5.61902C128.268 4.91604 127.44 4.08179 126.708 3.67463C125.507 3.00692 126.472 3.0486 112.23 3.0486H99.367V10.523ZM149.074 10.523V17.9973H151.603H154.131V10.523V3.0486H151.603H149.074V10.523ZM74.561 10.523V16.2725H64.6386H54.7163V10.523V4.77346H64.6386H74.561V10.523ZM111.865 12.6557V17.9973H114.346H116.827V15.1458V12.2944L114.346 9.80427L111.865 7.31416V12.6557Z" fill="black"/>
            </svg>